<svg width="1034" height="970" viewBox="0 0 1034 970" fill="none" xmlns="http://www.w3.org/2000/svg">
<rect x="0.5" y="0.5" width="1033" height="969" stroke="#DDDEEE"/>
<rect x="1.5" y="1.5" width="1031" height="70" stroke="#DDDEEE"/>
<rect x="1.5" y="277.5" width="1031" height="70" stroke="#DDDEEE"/>
<rect x="1.5" y="691.5" width="1031" height="70" stroke="#DDDEEE"/>
<rect x="1.5" y="139.5" width="1031" height="70" stroke="#DDDEEE"/>
<rect x="1.5" y="553.5" width="1031" height="70" stroke="#DDDEEE"/>
<rect x="1.5" y="415.5" width="1031" height="70" stroke="#DDDEEE"/>
<rect x="1.5" y="829.5" width="1031" height="70" stroke="#DDDEEE"/>
<rect x="1.5" y="70.5" width="1031" height="70" stroke="#DDDEEE"/>
<rect x="1.5" y="346.5" width="1031" height="70" stroke="#DDDEEE"/>
<rect x="1.5" y="760.5" width="1031" height="70" stroke="#DDDEEE"/>
<rect x="1.5" y="208.5" width="1031" height="70" stroke="#DDDEEE"/>
<rect x="1.5" y="622.5" width="1031" height="70" stroke="#DDDEEE"/>
<rect x="1.5" y="484.5" width="1031" height="70" stroke="#DDDEEE"/>
<rect x="1.5" y="898.5" width="1031" height="70" stroke="#DDDEEE"/>
</svg>
