<svg width="34" height="48" viewBox="0 0 34 48" fill="none" xmlns="http://www.w3.org/2000/svg">
<path d="M32.8621 44.4636C30.8434 33.8375 30.9306 34.2899 30.9207 34.2462C30.656 32.9031 29.9117 31.7879 28.7052 31.0892C28.1408 30.7617 27.8154 30.7106 27.5309 30.6132L22.5714 28.8074L20.9186 27.619V26.2711C23.3356 24.7659 24.8744 22.1736 25.1557 19.3684C27.1755 19.4665 28.5832 17.4428 27.7364 15.6711V9.99906C27.7364 5.89729 25.6084 4.47029 24.9582 4.13019C21.777 0.14911 15.8366 -0.871927 11.3333 1.55041L11.3247 1.55496C11.2474 1.60255 10.3193 2.05268 9.17649 3.05442C8.89922 3.30583 8.86887 3.74519 9.10861 4.03584C9.34879 4.32686 9.768 4.35794 10.0448 4.107C14.4552 0.224903 21.0013 1.22247 24.0276 5.13416C24.1021 5.23036 24.1928 5.30133 24.3035 5.34475C24.3895 5.38093 26.409 6.2719 26.409 9.99906V14.3903C26.0408 14.2268 25.6371 14.143 25.2068 14.1557V11.8799C25.2068 11.3026 24.7919 10.8255 24.2418 10.7698C23.1264 10.6569 22.5014 9.89507 22.1735 9.27601C21.763 8.50109 20.7832 8.31546 20.1407 8.89101C17.1812 11.5429 13.7737 11.6776 11.4364 11.3242C9.67074 11.057 8.02859 12.3177 7.74283 14.1566C7.31309 14.1371 6.88848 14.2169 6.49812 14.3902C6.50068 11.9948 6.23705 9.38844 8.10594 6.40187C8.30647 6.08014 8.22019 5.64903 7.91328 5.43882C7.60646 5.2285 7.19512 5.31877 6.99459 5.64069C4.45118 9.72613 5.36119 13.3869 5.17057 15.671C4.32418 17.4421 5.73005 19.4665 7.75115 19.3682C8.08107 22.672 10.0225 24.5726 10.0686 24.6554L10.0687 24.6555C10.4133 25.0018 11.0322 25.7252 12.2385 26.4222V27.6188L10.5858 28.8071C4.11763 31.1624 4.7741 30.8766 4.24861 31.2132C3.2554 31.8545 2.56698 32.8354 2.28007 34.0431C2.22352 34.2818 2.31742 33.8307 0.294991 44.4633C0.254282 44.678 0.232865 45.0967 0.269415 45.4518C0.419329 46.9119 1.40714 47.7492 2.97955 47.7492H21.2174C21.5841 47.7492 21.8812 47.4378 21.8812 47.0534C21.8812 46.6691 21.5841 46.3577 21.2174 46.3577H7.64708V39.9826C7.64708 39.5983 7.3499 39.2868 6.98335 39.2868C6.61679 39.2868 6.31962 39.5983 6.31962 39.9826V46.3578H2.97938C1.93874 46.3578 1.45006 45.8898 1.60068 44.7151C3.41691 35.4116 3.4208 34.6609 3.71789 33.8986C3.76966 33.8226 4.05586 32.7491 5.45907 32.1247C5.60412 32.0623 5.51367 32.1041 6.01262 31.9447C6.04342 31.9354 5.89129 31.9896 8.27497 31.122L9.86482 34.1986C10.0394 34.5365 10.4421 34.6622 10.7646 34.479C11.0869 34.296 11.2066 33.8737 11.032 33.5358L9.54561 30.6592L10.5621 30.2891C11.0521 31.2374 15.3907 39.6329 15.8623 40.5454C16.1533 41.1105 16.8944 41.1387 17.2358 40.6452C17.2977 40.5559 16.9443 41.2208 22.5865 30.2859L23.6028 30.656L18.2297 41.075C17.5213 42.4485 15.6382 42.4486 14.929 41.0765L12.5074 36.3904C12.3327 36.0526 11.9301 35.9268 11.6077 36.1101C11.2854 36.2932 11.1656 36.7154 11.3402 37.0533L13.7619 41.7394C14.9731 44.0829 18.1886 44.0808 19.3974 41.7368L24.8732 31.1186C27.2515 31.9843 27.1121 31.9348 27.1428 31.9441C27.6107 32.0936 27.5587 32.0648 27.6965 32.1239C28.204 32.3506 28.5069 32.6121 28.4981 32.6052C29.0185 33.0452 29.3774 33.5536 29.5691 34.3022C29.6005 34.4209 31.5709 44.6621 31.5789 45.0077C31.5987 45.8812 31.2389 46.3578 30.1779 46.3578H26.8374V39.9826C26.8374 39.5983 26.5404 39.2868 26.1737 39.2868C25.8071 39.2868 25.51 39.5983 25.51 39.9826V46.3578H24.3145C23.9478 46.3578 23.6507 46.6692 23.6507 47.0535C23.6507 47.4379 23.9478 47.7493 24.3145 47.7493H30.1777C31.7501 47.7493 32.7378 46.912 32.8876 45.4527C32.9238 45.1045 32.9025 44.6769 32.8621 44.4636ZM25.2067 15.5477C25.9721 15.5053 26.6572 16.0458 26.6572 16.7627C26.6572 17.4868 25.9647 18.0199 25.2067 17.9778V15.5477ZM7.70035 17.9778C6.93503 18.0203 6.24988 17.4797 6.24988 16.7628C6.24988 16.0387 6.94237 15.5057 7.70035 15.5477V17.9778ZM11.2466 12.7015C13.8556 13.0962 17.666 12.9392 21.003 9.94878L21.0128 9.95147C21.6539 11.1617 22.6654 11.9256 23.8792 12.1238V14.5877L23.1219 15.0563C22.81 14.5852 22.2911 14.2755 21.704 14.2755H18.6667C17.9503 14.2755 17.3349 14.7358 17.0742 15.3888H15.8328C15.5722 14.7358 14.9567 14.2755 14.2403 14.2755H11.203C10.6158 14.2755 10.0968 14.5852 9.78508 15.0563L9.03117 14.5897C9.09649 13.4003 10.1222 12.531 11.2466 12.7015ZM22.1022 16.0846V17.4702C22.1022 18.0738 21.6338 18.5647 21.058 18.5647H19.3124C18.7368 18.5647 18.2683 18.0737 18.2683 17.4702V16.0846H18.2684C18.2684 15.8583 18.4508 15.6671 18.6667 15.6671H21.704C21.9198 15.6671 22.1022 15.8583 22.1022 16.0846ZM14.6385 16.0846V17.4702C14.6385 18.0738 14.1702 18.5647 13.5944 18.5647H11.8488C11.2731 18.5647 10.8047 18.0737 10.8047 17.4702V16.0846C10.8047 15.8583 10.9871 15.6671 11.203 15.6671H14.2403C14.4561 15.6671 14.6385 15.8583 14.6385 16.0846ZM10.8178 23.4476C8.66966 20.8229 9.08374 18.2744 9.02781 16.2036L9.47747 16.4818V17.4702C9.47747 18.841 10.5413 19.9563 11.8489 19.9563H13.5945C14.9022 19.9563 15.966 18.8411 15.966 17.4702V16.7802H16.9413V17.4702C16.9413 18.841 18.0052 19.9563 19.3128 19.9563H21.0584C22.366 19.9563 23.4299 18.8411 23.4299 17.4702V16.4818L23.8796 16.2036V18.3792C23.8796 22.5175 20.7551 26.1131 16.4538 26.1626C16.4449 26.1625 16.3555 26.1619 16.3643 26.162C15.217 26.1498 14.3353 25.8416 14.4245 25.8678C13.122 25.4891 11.8799 24.7074 10.8178 23.4476ZM16.5786 31.2316L13.566 27.7175V27.0427C14.9514 27.5471 16.3881 27.663 17.7259 27.4586C18.0992 27.4017 18.501 27.3084 18.736 27.2389C18.7919 27.2199 19.1123 27.1395 19.5912 26.9464V27.7176L16.5786 31.2316ZM17.3261 33.7112L17.0328 34.3443H16.1244L15.831 33.7112L16.5786 33.1357L17.3261 33.7112ZM14.8294 35.6256L14.4068 34.8078L14.7434 34.5487L14.995 35.0917L14.8294 35.6256ZM13.7731 33.5693L11.7565 29.6588L12.7995 28.9049L15.5954 32.1663C15.4339 32.2904 13.9317 33.4471 13.7731 33.5693ZM16.5784 39.0099L15.7017 37.3135L16.1911 35.7358H16.9664L17.4549 37.3107C17.177 37.8492 16.919 38.3494 16.5784 39.0099ZM18.3263 35.6205L18.1622 35.0916L18.4138 34.5485L18.7468 34.8049L18.3263 35.6205ZM19.3842 33.5693C19.2117 33.4365 17.7698 32.3263 17.562 32.1663L20.3579 28.9049L21.4009 29.6588C20.731 30.9574 19.8188 32.7263 19.3842 33.5693Z" fill="#3F7AFC" stroke="#3F7AFC" stroke-width="0.5"/>
</svg>
