<svg width="20" height="27" viewBox="0 0 20 27" fill="none" xmlns="http://www.w3.org/2000/svg">
<path d="M19.3428 24.9558C18.1581 19.0071 18.2093 19.2604 18.2035 19.2359C18.0482 18.484 17.6114 17.8597 16.9033 17.4685C16.5721 17.2851 16.3811 17.2566 16.2142 17.202L13.3036 16.1911L12.3336 15.5258V14.7712C13.7521 13.9286 14.6552 12.4773 14.8203 10.9069C16.0056 10.9618 16.8317 9.82892 16.3348 8.83706V5.66173C16.3348 3.36545 15.0859 2.56658 14.7043 2.37619C12.8374 0.147479 9.35125 -0.424123 6.70847 0.931964L6.70338 0.934508C6.65804 0.961151 6.11339 1.21314 5.44269 1.77394C5.27998 1.91469 5.26217 2.16065 5.40286 2.32337C5.54381 2.48629 5.78983 2.50369 5.95229 2.3632C8.54054 0.18991 12.3822 0.748372 14.1582 2.93823C14.2019 2.99209 14.2552 3.03182 14.3201 3.05612C14.3706 3.07638 15.5558 3.57517 15.5558 5.66173V8.12004C15.3397 8.02853 15.1027 7.98163 14.8502 7.98869V6.71467C14.8502 6.39147 14.6068 6.12437 14.2839 6.09321C13.6293 6.03 13.2626 5.60351 13.0701 5.25694C12.8292 4.82312 12.2542 4.7192 11.8771 5.04141C10.1404 6.52598 8.14064 6.60139 6.76892 6.40357C5.73275 6.254 4.76904 6.95975 4.60134 7.98921C4.34914 7.97831 4.09996 8.02297 3.87087 8.11999C3.87237 6.77896 3.71766 5.31989 4.81443 3.64793C4.93212 3.46782 4.88148 3.22647 4.70137 3.10879C4.52131 2.99105 4.27991 3.04158 4.16223 3.2218C2.6696 5.50893 3.20365 7.55831 3.09178 8.83701C2.59507 9.82851 3.42012 10.9618 4.60622 10.9068C4.79984 12.7564 5.9392 13.8204 5.96626 13.8667L5.96631 13.8667C6.16854 14.0606 6.53173 14.4656 7.23966 14.8558V15.5257L6.26977 16.1909C2.47386 17.5095 2.85911 17.3495 2.55072 17.5379C1.96785 17.8969 1.56384 18.4461 1.39547 19.1222C1.36228 19.2558 1.41739 19.0033 0.230504 24.9556C0.206614 25.0759 0.194045 25.3103 0.215495 25.509C0.303473 26.3264 0.883177 26.7952 1.80597 26.7952H12.509C12.7242 26.7952 12.8985 26.6209 12.8985 26.4057C12.8985 26.1905 12.7242 26.0162 12.509 26.0162H4.54515V22.4473C4.54515 22.2321 4.37075 22.0578 4.15563 22.0578C3.94051 22.0578 3.76611 22.2321 3.76611 22.4473V26.0162H1.80586C1.19515 26.0162 0.908366 25.7543 0.99676 25.0966C2.06263 19.8883 2.06492 19.468 2.23926 19.0413C2.26965 18.9988 2.4376 18.3978 3.26109 18.0482C3.34622 18.0133 3.29314 18.0366 3.58595 17.9474C3.60402 17.9422 3.51475 17.9726 4.91363 17.4869L5.84665 19.2092C5.94912 19.3984 6.18542 19.4688 6.37468 19.3662C6.56383 19.2637 6.63409 19.0273 6.53163 18.8382L5.65932 17.2278L6.25585 17.0206C6.54342 17.5515 9.08955 22.2515 9.36632 22.7623C9.53713 23.0787 9.97204 23.0945 10.1724 22.8182C10.2087 22.7682 10.0013 23.1405 13.3125 17.0188L13.9089 17.226L10.7556 23.0588C10.3399 23.8277 9.23482 23.8278 8.8186 23.0596L7.39749 20.4363C7.29497 20.2471 7.05867 20.1767 6.86947 20.2793C6.68032 20.3818 6.61005 20.6182 6.71252 20.8074L8.13368 23.4308C8.84452 24.7427 10.7315 24.7415 11.4409 23.4293L14.6544 17.485C16.0502 17.9696 15.9684 17.9419 15.9864 17.9471C16.261 18.0308 16.2305 18.0147 16.3113 18.0478C16.6092 18.1746 16.787 18.321 16.7818 18.3172C17.0872 18.5635 17.2978 18.8481 17.4103 19.2672C17.4287 19.3337 18.5851 25.0669 18.5898 25.2604C18.6014 25.7494 18.3902 26.0162 17.7676 26.0162H15.8072V22.4473C15.8072 22.2321 15.6328 22.0578 15.4177 22.0578C15.2025 22.0578 15.0282 22.2321 15.0282 22.4473V26.0162H14.3266C14.1114 26.0162 13.9371 26.1906 13.9371 26.4057C13.9371 26.6209 14.1114 26.7953 14.3266 26.7953H17.7674C18.6902 26.7953 19.2699 26.3265 19.3578 25.5095C19.379 25.3146 19.3665 25.0753 19.3428 24.9558ZM14.8502 8.76799C15.2994 8.74425 15.7014 9.04683 15.7014 9.44819C15.7014 9.85354 15.295 10.152 14.8502 10.1284V8.76799ZM4.57641 10.1284C4.12727 10.1522 3.72519 9.84959 3.72519 9.44824C3.72519 9.04288 4.13158 8.74446 4.57641 8.76799V10.1284ZM6.65757 7.17461C8.18868 7.39559 10.4249 7.30767 12.3832 5.63358L12.389 5.63508C12.7652 6.31258 13.3588 6.74027 14.0711 6.8512V8.23056L13.6267 8.49288C13.4437 8.22916 13.1391 8.0558 12.7946 8.0558H11.0121C10.5917 8.0558 10.2305 8.31345 10.0776 8.67902H9.34902C9.19607 8.31345 8.83486 8.0558 8.41444 8.0558H6.63196C6.28737 8.0558 5.98277 8.22916 5.79986 8.49288L5.35742 8.2317C5.39574 7.56584 5.99768 7.07915 6.65757 7.17461ZM13.0283 9.06854V9.84425C13.0283 10.1821 12.7534 10.457 12.4155 10.457H11.3911C11.0532 10.457 10.7783 10.1821 10.7783 9.84425V9.06854H10.7784C10.7784 8.94187 10.8854 8.83483 11.0121 8.83483H12.7946C12.9212 8.83483 13.0283 8.94187 13.0283 9.06854ZM8.64815 9.06854V9.84425C8.64815 10.1821 8.37331 10.457 8.03542 10.457H7.01099C6.6731 10.457 6.39825 10.1821 6.39825 9.84425V9.06854C6.39825 8.94187 6.50529 8.83483 6.63196 8.83483H8.41444C8.54111 8.83483 8.64815 8.94187 8.64815 9.06854ZM6.40589 13.1906C5.14526 11.7212 5.38827 10.2945 5.35544 9.13517L5.61933 9.29092V9.84425C5.61933 10.6116 6.24364 11.236 7.01104 11.236H8.03547C8.80287 11.236 9.42718 10.6117 9.42718 9.84425V9.458H9.99956V9.84425C9.99956 10.6116 10.6239 11.236 11.3913 11.236H12.4157C13.1831 11.236 13.8075 10.6117 13.8075 9.84425V9.29092L14.0714 9.13517V10.3531C14.0714 12.6698 12.2377 14.6828 9.71345 14.7105C9.70821 14.7104 9.65575 14.7101 9.66094 14.7101C8.9876 14.7033 8.47017 14.5307 8.52252 14.5454C7.75819 14.3334 7.02922 13.8958 6.40589 13.1906ZM9.78668 17.5482L8.01869 15.5809V15.2032C8.83174 15.4855 9.67491 15.5504 10.46 15.436C10.6791 15.4041 10.9149 15.3519 11.0528 15.313C11.0856 15.3023 11.2736 15.2574 11.5547 15.1492V15.581L9.78668 17.5482ZM10.2254 18.9364L10.0533 19.2908H9.52015L9.34798 18.9364L9.78668 18.6142L10.2254 18.9364ZM8.76018 20.0081L8.51213 19.5503L8.7097 19.4052L8.85735 19.7092L8.76018 20.0081ZM8.14028 18.8569L6.95682 16.6677L7.56888 16.2457L9.20968 18.0715C9.1149 18.141 8.23334 18.7885 8.14028 18.8569ZM9.78658 21.9027L9.2721 20.953L9.55931 20.0698H10.0143L10.3009 20.9515C10.1379 21.2529 9.98648 21.5329 9.78658 21.9027ZM10.8124 20.0053L10.7161 19.7091L10.8637 19.4051L11.0592 19.5486L10.8124 20.0053ZM11.4332 18.8569C11.332 18.7826 10.4858 18.1611 10.3638 18.0715L12.0046 16.2457L12.6167 16.6677C12.2236 17.3947 11.6882 18.385 11.4332 18.8569Z" fill="white" fill-opacity="0.8" stroke="white" stroke-opacity="0.8" stroke-width="0.4"/>
</svg>
