<svg width="26" height="26" viewBox="0 0 26 26" fill="none" xmlns="http://www.w3.org/2000/svg">
<g clip-path="url(#clip0_140_175)">
<path d="M8.3491 6.34712C9.5142 6.34712 10.4587 5.40263 10.4587 4.23753C10.4587 3.07243 9.5142 2.12793 8.3491 2.12793C7.184 2.12793 6.2395 3.07243 6.2395 4.23753C6.2395 5.40263 7.184 6.34712 8.3491 6.34712Z" fill="white"/>
<path d="M12.6384 24.6689L11.8675 19.0059C11.8561 18.9221 11.8357 18.8397 11.8065 18.7602L10.7055 15.7584V13.2694C9.93672 13.6405 9.01799 13.3214 8.64176 12.5583L7.12173 9.46523L9.27099 12.0311C9.72355 12.5714 10.586 12.4373 10.8561 11.79L12.3422 8.22805C12.5417 7.74985 12.3158 7.2005 11.8376 7.00093C11.3595 6.80136 10.81 7.02739 10.6105 7.50549L9.71852 9.64337L8.56005 8.2604L9.20776 8.73561L9.90956 7.06045H6.73909C6.0598 7.06045 5.49186 7.53591 5.34901 8.17214V8.01676C5.34901 7.13946 4.63782 6.42822 3.76053 6.42822C2.88329 6.42822 2.172 7.13941 2.172 8.01676V10.1418H1.72426C1.41932 10.1418 1.17212 10.389 1.17212 10.6939V12.4609C1.17212 12.7658 1.41932 13.013 1.72426 13.013H2.172C2.172 14.1031 3.01476 14.8406 3.95457 14.8406H5.31402V15.797H5.31524L5.16305 19.433L3.1247 24.3805C2.87796 24.9793 3.1634 25.6648 3.76226 25.9115C4.36122 26.1583 5.04666 25.8727 5.29331 25.274L7.41047 20.1353C7.46257 20.0089 7.49218 19.8743 7.49786 19.7376C7.6727 15.5601 7.66153 15.8438 7.66153 15.7971H8.22129L9.56059 19.4485L10.3143 24.9854C10.4017 25.6278 10.9936 26.0766 11.6344 25.9892C12.2764 25.9017 12.7258 25.3106 12.6384 24.6689Z" fill="white"/>
<path d="M20.5276 4.21919C21.6927 4.21919 22.6372 3.2747 22.6372 2.1096C22.6372 0.944499 21.6927 0 20.5276 0C19.3625 0 18.418 0.944499 18.418 2.1096C18.418 3.2747 19.3625 4.21919 20.5276 4.21919Z" fill="white"/>
<path d="M24.8169 22.5405L24.046 16.8775C24.0346 16.7937 24.0142 16.7113 23.9851 16.6318L22.884 13.63V12.6341C22.4623 12.5 20.0388 11.7294 19.5513 11.5743C18.9754 11.3912 18.6242 10.831 18.6824 10.2528L19.0256 6.82357L19.4952 10.1376C19.5458 10.4945 19.7963 10.7908 20.1398 10.9001L23.2157 11.8781C23.7094 12.0351 24.237 11.7622 24.394 11.2683C24.5511 10.7745 24.2781 10.247 23.7843 10.09L21.2702 9.29056L20.8833 6.56037L21.6855 8.56125L22.884 8.94236V6.3571C22.884 5.57004 22.246 4.93203 21.4589 4.93203H18.9176C18.2383 4.93203 17.6704 5.40749 17.5275 6.04373V5.88834C17.5275 5.01104 16.8163 4.2998 15.939 4.2998C15.0617 4.2998 14.3505 5.01099 14.3505 5.88834V8.506H13.9332C13.6283 8.506 13.3811 8.7532 13.3811 9.05814V10.5963C13.3811 10.9013 13.6283 11.1485 13.9332 11.1485H14.3644C14.4724 12.0296 15.2227 12.7121 16.1331 12.7121H17.4925V13.6685H17.4938L17.3416 17.3045L15.3032 22.252C15.0565 22.8508 15.342 23.5363 15.9408 23.7831C16.5402 24.03 17.2253 23.7438 17.4718 23.1455L19.5889 18.0069C19.641 17.8804 19.6706 17.7458 19.6763 17.6092C19.8512 13.4311 19.84 13.7156 19.84 13.6686H20.3998L21.7391 17.3201L22.4928 22.8569C22.5802 23.4993 23.1721 23.9482 23.813 23.8608C24.4549 23.7733 24.9043 23.1822 24.8169 22.5405Z" fill="white"/>
</g>
<defs>
<clipPath id="clip0_140_175">
<rect width="26" height="26" fill="white"/>
</clipPath>
</defs>
</svg>
