<svg width="40" height="40" viewBox="0 0 40 40" fill="none" xmlns="http://www.w3.org/2000/svg">
<g clip-path="url(#clip0_29_60)">
<path d="M19.6667 18.1667C15.8833 17.1833 14.6667 16.1667 14.6667 14.5833C14.6667 12.7667 16.35 11.5 19.1667 11.5C22.1333 11.5 23.2333 12.9167 23.3333 15H27.0167C26.9 12.1333 25.15 9.5 21.6667 8.65V5H16.6667V8.6C13.4333 9.3 10.8333 11.4 10.8333 14.6167C10.8333 18.4667 14.0167 20.3833 18.6667 21.5C22.8333 22.5 23.6667 23.9667 23.6667 25.5167C23.6667 26.6667 22.85 28.5 19.1667 28.5C15.7333 28.5 14.3833 26.9667 14.2 25H10.5333C10.7333 28.65 13.4667 30.7 16.6667 31.3833V35H21.6667V31.4167C24.9167 30.8 27.5 28.9167 27.5 25.5C27.5 20.7667 23.45 19.15 19.6667 18.1667Z" fill="#FF0000"/>
</g>
<defs>
<clipPath id="clip0_29_60">
<rect width="40" height="40" fill="white"/>
</clipPath>
</defs>
</svg>
