<svg width="156" height="155" viewBox="0 0 156 155" fill="none" xmlns="http://www.w3.org/2000/svg">
<path d="M153.981 12.7079L154.498 11.767L153.523 11.3173C141.483 5.76526 120.755 0.0724294 97.8913 1.12765C75.0058 2.18387 49.9349 10.0062 29.3337 31.542C8.73825 53.0718 1.42518 79.2127 1.01852 102.027C0.815204 113.433 2.33724 124.023 4.79767 132.816C7.25269 141.589 10.6625 148.645 14.2873 152.926L14.8915 153.64L15.6442 153.085L34.6516 139.08L35.2966 138.605L34.9738 137.871C34.6875 137.221 34.3103 136.472 33.8791 135.616C31.8839 131.656 28.7332 125.401 28.0937 116.025C27.3179 104.65 30.2635 88.6149 43.9102 66.7763C59.5099 41.8124 79.524 32.073 97.5344 29.722C115.604 27.3632 131.692 32.4383 139.334 37.1538L140.229 37.706L140.736 36.7846L153.981 12.7079Z" fill="#F22829" stroke="white" stroke-width="2"/>
</svg>
