<svg width="27" height="27" viewBox="0 0 27 27" fill="none" xmlns="http://www.w3.org/2000/svg">
<path d="M24.8753 14.1225C23.8933 13.9184 22.5629 13.8104 21.0281 13.8104C20.3946 13.8104 19.7967 13.8291 19.2431 13.8651V1.67755C19.2431 0.893026 18.6048 0.254717 17.8202 0.254717H1.67755C0.853083 0.254717 0.254717 0.94016 0.254717 1.88451V23.3564C0.254717 23.9186 0.876262 24.5722 1.67755 24.5722H15.3109V25.1672C15.3109 26.0444 16.7183 26.337 17.1808 26.4332C18.1629 26.6374 19.4933 26.7453 21.0281 26.7453C22.5629 26.7453 23.8933 26.6374 24.8753 26.4332C25.3379 26.337 26.7453 26.0444 26.7453 25.1672V15.3885C26.7453 14.5113 25.3379 14.2187 24.8753 14.1225ZM25.9692 20.2754C25.9612 20.292 25.7997 20.5772 24.5876 20.8099C23.6678 20.9865 22.4369 21.0799 21.0281 21.0799C19.6193 21.0799 18.3884 20.9865 17.4685 20.8099C16.2267 20.5715 16.0876 20.2779 16.087 20.2779V18.7657C16.4931 18.9559 16.9523 19.0516 17.1808 19.0991C18.1629 19.3032 19.4933 19.4112 21.0281 19.4112C22.5629 19.4112 23.8933 19.3032 24.8753 19.0991C25.1039 19.0516 25.563 18.9559 25.9692 18.7657V20.2754ZM10.2404 20.3555C10.0261 20.3555 9.85237 20.5292 9.85237 20.7435V21.7266H3.95408C3.75183 21.7266 3.61778 21.5609 3.61778 21.4937V17.6392H9.85237V18.9326C9.85237 19.147 10.0261 19.3207 10.2404 19.3207C10.4548 19.3207 10.6285 19.147 10.6285 18.9326V17.6392H15.3109V21.7266H10.6285V20.7435C10.6285 20.5292 10.4548 20.3555 10.2404 20.3555ZM16.8631 14.1934C16.2681 14.3393 15.3109 14.665 15.3109 15.3885V16.8631H10.6285V12.7756H16.5268C16.7122 12.7756 16.8631 12.9265 16.8631 13.112V14.1934ZM9.85237 16.8631H3.61778V13.2154C3.61778 12.9524 3.75292 12.7756 3.95408 12.7756H9.85237V16.8631ZM25.9692 17.8307C25.9612 17.8474 25.7997 18.1325 24.5876 18.3653C23.6678 18.5418 22.4369 18.6352 21.0281 18.6352C19.6193 18.6352 18.3884 18.5418 17.4685 18.3653C16.2267 18.1268 16.0876 17.8332 16.087 17.8332V16.321C16.4931 16.5112 16.9523 16.6069 17.1808 16.6544C18.1629 16.8586 19.4933 16.9665 21.0281 16.9665C22.5629 16.9665 23.8933 16.8586 24.8753 16.6544C25.1039 16.6069 25.563 16.5113 25.9692 16.321V17.8307ZM24.5876 14.8565C25.7581 15.0812 25.9489 15.355 25.9679 15.3885C25.9489 15.422 25.7581 15.6958 24.5876 15.9205C23.6678 16.0971 22.4369 16.1904 21.0281 16.1904C19.6193 16.1904 18.3884 16.0971 17.4685 15.9205C16.2981 15.6958 16.1073 15.422 16.0883 15.3885C16.1073 15.355 16.2981 15.0812 17.4685 14.8565C18.3884 14.6799 19.6193 14.5865 21.0281 14.5865C22.4369 14.5865 23.6678 14.6799 24.5876 14.8565ZM1.67755 23.7961C1.30389 23.7961 1.03081 23.4875 1.03081 23.3564V10.7061H13.8104C14.0248 10.7061 14.1985 10.5324 14.1985 10.318C14.1985 10.1037 14.0248 9.92998 13.8104 9.92998H1.03081V1.88451C1.03081 1.36592 1.28464 1.03081 1.67755 1.03081H17.8202C18.1769 1.03081 18.467 1.32091 18.467 1.67755V9.92998H15.6213C15.407 9.92998 15.2333 10.1037 15.2333 10.318C15.2333 10.5324 15.407 10.7061 15.6213 10.7061H18.467V13.9299C18.1736 13.9604 17.8973 13.9968 17.6392 14.0387V13.112C17.6392 12.4986 17.1401 11.9996 16.5268 11.9996H3.95408C3.31991 11.9996 2.84169 12.5223 2.84169 13.2154V21.4937C2.84169 22.0312 3.36151 22.5027 3.95408 22.5027H15.3109V23.7961H1.67755ZM24.5876 25.6993C23.6678 25.8759 22.4369 25.9692 21.0281 25.9692C19.6193 25.9692 18.3884 25.8759 17.4685 25.6993C16.2267 25.4609 16.0876 25.1672 16.087 25.1672V23.655C16.4931 23.8453 16.9523 23.941 17.1808 23.9885C18.1629 24.1926 19.4933 24.3005 21.0281 24.3005C21.7676 24.3005 22.4681 24.2749 23.1101 24.2243C23.3237 24.2075 23.4833 24.0207 23.4665 23.8071C23.4496 23.5934 23.2623 23.4338 23.0492 23.4507C22.4274 23.4996 21.7474 23.5245 21.0281 23.5245C19.6193 23.5245 18.3884 23.4311 17.4685 23.2545C16.2267 23.0162 16.0876 22.7225 16.087 22.7225V21.2104C16.4931 21.4006 16.9523 21.4963 17.1808 21.5438C18.1629 21.7479 19.4933 21.8559 21.0281 21.8559C22.5629 21.8559 23.8933 21.7479 24.8753 21.5438C25.1039 21.4963 25.563 21.4006 25.9692 21.2104V22.72C25.9612 22.7366 25.8183 22.9892 24.7912 23.2129C24.5819 23.2586 24.4491 23.4653 24.4947 23.6747C24.5394 23.8856 24.7524 24.0174 24.9565 23.9712C25.1688 23.925 25.5892 23.8331 25.9692 23.6554V25.1647C25.9612 25.1814 25.7997 25.4665 24.5876 25.6993Z" fill="white" stroke="white" stroke-width="0.5"/>
<path d="M17.6909 7.5241V3.43669C17.6909 2.82332 17.1919 2.32429 16.5785 2.32429H8.01562C7.80127 2.32429 7.62758 2.49798 7.62758 2.71234C7.62758 2.92669 7.80127 3.10038 8.01562 3.10038H16.5785C16.7639 3.10038 16.9148 3.25126 16.9148 3.43669V7.5241C16.9148 7.70953 16.7639 7.86041 16.5785 7.86041H3.95408C3.76865 7.86041 3.61778 7.70953 3.61778 7.5241V3.43669C3.61778 3.25126 3.76865 3.10038 3.95408 3.10038H6.20475C6.4191 3.10038 6.59279 2.92669 6.59279 2.71234C6.59279 2.49798 6.4191 2.32429 6.20475 2.32429H3.95408C3.34071 2.32429 2.84169 2.82332 2.84169 3.43669V7.5241C2.84169 8.13747 3.34071 8.6365 3.95408 8.6365H16.5785C17.1919 8.6365 17.6909 8.13747 17.6909 7.5241Z" fill="white" stroke="white" stroke-width="0.5"/>
<path d="M8.40367 19.2948H5.60974C5.39539 19.2948 5.2217 19.4685 5.2217 19.6829C5.2217 19.8972 5.39539 20.0709 5.60974 20.0709H8.40367C8.61803 20.0709 8.79172 19.8972 8.79172 19.6829C8.79172 19.4685 8.61803 19.2948 8.40367 19.2948Z" fill="white" stroke="white" stroke-width="0.5"/>
<path d="M5.86844 15.2074H6.61866V15.9576C6.61866 16.172 6.79235 16.3457 7.00671 16.3457C7.22106 16.3457 7.39475 16.172 7.39475 15.9576V15.2074H8.14497C8.35933 15.2074 8.53302 15.0337 8.53302 14.8194C8.53302 14.605 8.35933 14.4313 8.14497 14.4313H7.39475V13.6811C7.39475 13.4667 7.22106 13.293 7.00671 13.293C6.79235 13.293 6.61866 13.4667 6.61866 13.6811V14.4313H5.86844C5.65408 14.4313 5.4804 14.605 5.4804 14.8194C5.4804 15.0337 5.65408 15.2074 5.86844 15.2074Z" fill="white" stroke="white" stroke-width="0.5"/>
<path d="M14.5792 13.74C14.4276 13.5885 14.182 13.5885 14.0304 13.74L13.5 14.2705L12.9695 13.74C12.8179 13.5885 12.5722 13.5885 12.4207 13.74C12.2691 13.8916 12.2691 14.1372 12.4207 14.2888L12.9512 14.8193L12.4207 15.3498C12.2691 15.5013 12.2691 15.747 12.4207 15.8985C12.5723 16.05 12.8179 16.05 12.9695 15.8985L13.5 15.3681L14.0304 15.8985C14.182 16.05 14.4276 16.05 14.5792 15.8985C14.7308 15.747 14.7308 15.5013 14.5792 15.3498L14.0488 14.8193L14.5792 14.2888C14.7308 14.1372 14.7308 13.8915 14.5792 13.74Z" fill="white" stroke="white" stroke-width="0.5"/>
<path d="M12.6279 20.9579C12.7272 20.9579 12.8265 20.92 12.9023 20.8443L14.6614 19.0851C14.813 18.9335 14.813 18.6879 14.6614 18.5363C14.5098 18.3848 14.2642 18.3848 14.1126 18.5363L12.3535 20.2955C12.202 20.4471 12.202 20.6927 12.3535 20.8443C12.4293 20.92 12.5286 20.9579 12.6279 20.9579Z" fill="white" stroke="white" stroke-width="0.5"/>
<path d="M12.7498 19.0879C12.9641 19.0879 13.1378 18.9141 13.1378 18.6998C13.1378 18.4855 12.9641 18.3118 12.7498 18.3118C12.5355 18.3118 12.3617 18.4855 12.3617 18.6998C12.3617 18.9141 12.5355 19.0879 12.7498 19.0879Z" fill="white" stroke="white" stroke-width="0.5"/>
<path d="M14.302 21.054C14.5163 21.054 14.69 20.8802 14.69 20.6659C14.69 20.4516 14.5163 20.2779 14.302 20.2779C14.0876 20.2779 13.9139 20.4516 13.9139 20.6659C13.9139 20.8802 14.0876 21.054 14.302 21.054Z" fill="white" stroke="white" stroke-width="0.5"/>
<path d="M15.285 7.13606C15.7842 7.13606 16.1904 6.72985 16.1904 6.23062V4.73017C16.1904 4.23094 15.7842 3.82473 15.285 3.82473H14.5607C14.0614 3.82473 13.6552 4.23094 13.6552 4.73017V6.23062C13.6552 6.72985 14.0614 7.13606 14.5607 7.13606H15.285ZM14.4313 6.23062V4.73017C14.4313 4.65883 14.4893 4.60083 14.5607 4.60083H15.285C15.3564 4.60083 15.4144 4.65883 15.4144 4.73017V6.23062C15.4144 6.30196 15.3564 6.35996 15.285 6.35996H14.5607C14.4893 6.35996 14.4313 6.30196 14.4313 6.23062Z" fill="white" stroke="white" stroke-width="0.5"/>
</svg>
