<svg width="47" height="47" viewBox="0 0 47 47" fill="none" xmlns="http://www.w3.org/2000/svg">
<g clip-path="url(#clip0_29_48)">
<path d="M29.375 20.7885C32.6258 20.7885 35.2304 18.1643 35.2304 14.9135C35.2304 11.6626 32.6258 9.03845 29.375 9.03845C26.1242 9.03845 23.5 11.6626 23.5 14.9135C23.5 18.1643 26.1242 20.7885 29.375 20.7885ZM13.7083 20.7885C16.9592 20.7885 19.5637 18.1643 19.5637 14.9135C19.5637 11.6626 16.9592 9.03845 13.7083 9.03845C10.4575 9.03845 7.83333 11.6626 7.83333 14.9135C7.83333 18.1643 10.4575 20.7885 13.7083 20.7885ZM13.7083 24.7051C9.14542 24.7051 0 26.9964 0 31.5593V36.4551H27.4167V31.5593C27.4167 26.9964 18.2712 24.7051 13.7083 24.7051ZM29.375 24.7051C28.8071 24.7051 28.1608 24.7443 27.4754 24.803C29.7471 26.448 31.3333 28.661 31.3333 31.5593V36.4551H43.0833V31.5593C43.0833 26.9964 33.9379 24.7051 29.375 24.7051Z" fill="#FFA002"/>
</g>
<defs>
<clipPath id="clip0_29_48">
<rect width="47" height="47" fill="white"/>
</clipPath>
</defs>
</svg>
