<svg width="40" height="40" viewBox="0 0 40 40" fill="none" xmlns="http://www.w3.org/2000/svg">
<g clip-path="url(#clip0_29_32)">
<path d="M12.8449 9.76473C14.6373 9.76473 16.0904 8.31165 16.0904 6.51919C16.0904 4.72673 14.6373 3.27366 12.8449 3.27366C11.0524 3.27366 9.59933 4.72673 9.59933 6.51919C9.59933 8.31165 11.0524 9.76473 12.8449 9.76473Z" fill="#3CB878"/>
<path d="M19.4438 37.9519L18.2578 29.2396C18.2402 29.1106 18.2088 28.9839 18.164 28.8616L16.4701 24.2434V20.4141C15.2873 20.9851 13.8739 20.4942 13.2951 19.3201L10.9566 14.5616L14.2631 18.5091C14.9594 19.3403 16.2862 19.134 16.7017 18.1381L18.988 12.6582C19.295 11.9225 18.9474 11.0774 18.2118 10.7703C17.4762 10.4633 16.6309 10.811 16.3239 11.5466L14.9516 14.8356L13.1694 12.708L14.1659 13.4391L15.2456 10.8619H10.3679C9.32284 10.8619 8.4491 11.5934 8.22933 12.5722V12.3332C8.22933 10.9835 7.13519 9.88926 5.78551 9.88926C4.43591 9.88926 3.34162 10.9834 3.34162 12.3332V15.6024H2.65279C2.18365 15.6024 1.80334 15.9827 1.80334 16.4519V19.1702C1.80334 19.6394 2.18365 20.0197 2.65279 20.0197H3.34162C3.34162 21.6968 4.63817 22.8314 6.08403 22.8314H8.1755V24.3028H8.17738L7.94324 29.8966L4.80731 37.5081C4.42771 38.4294 4.86684 39.484 5.78817 39.8636C6.70965 40.2432 7.76418 39.8038 8.14363 38.8827L11.4008 30.9771C11.481 30.7826 11.5265 30.5755 11.5353 30.3653C11.8042 23.9383 11.7871 24.3748 11.7871 24.3029H12.6482L14.7087 29.9205L15.8682 38.4387C16.0027 39.4271 16.9133 40.1176 17.8992 39.9831C18.8868 39.8485 19.5782 38.9391 19.4438 37.9519Z" fill="#3CB878"/>
<path d="M31.5807 6.49107C33.3732 6.49107 34.8263 5.03799 34.8263 3.24553C34.8263 1.45307 33.3732 0 31.5807 0C29.7883 0 28.3352 1.45307 28.3352 3.24553C28.3352 5.03799 29.7883 6.49107 31.5807 6.49107Z" fill="#3CB878"/>
<path d="M38.1798 34.678L36.9938 25.9657C36.9763 25.8368 36.9449 25.71 36.9 25.5878L35.2061 20.9696V19.4374C34.5573 19.2311 30.8288 18.0456 30.0788 17.807C29.1929 17.5253 28.6526 16.6634 28.7421 15.7739L29.27 10.4982L29.9925 15.5967C30.0703 16.1458 30.4558 16.6016 30.9843 16.7697L35.7164 18.2744C36.4759 18.5159 37.2877 18.0961 37.5292 17.3363C37.7708 16.5766 37.3508 15.7649 36.5911 15.5234L32.7234 14.2935L32.1282 10.0932L33.3622 13.1715L35.2061 13.7578V9.78051C35.2061 8.56965 34.2245 7.58809 33.0137 7.58809H29.1039C28.0589 7.58809 27.1851 8.31957 26.9654 9.2984V9.05934C26.9654 7.70966 25.8712 6.61544 24.5215 6.61544C23.1717 6.61544 22.0776 7.70958 22.0776 9.05934V13.0865H21.4357C20.9666 13.0865 20.5862 13.4668 20.5862 13.936V16.3024C20.5862 16.7716 20.9666 17.1519 21.4357 17.1519H22.099C22.2651 18.5075 23.4195 19.5575 24.8201 19.5575H26.9115V21.0289H26.9134L26.6793 26.6227L23.5433 34.2342C23.1637 35.1555 23.603 36.2101 24.5242 36.5897C25.4464 36.9695 26.5004 36.5293 26.8797 35.6088L30.1368 27.7032C30.2169 27.5087 30.2625 27.3016 30.2712 27.0914C30.5403 20.6637 30.523 21.1012 30.523 21.029H31.3842L33.4446 26.6466L34.6042 35.1648C34.7388 36.1532 35.6493 36.8437 36.6352 36.7092C37.6228 36.5747 38.3143 35.6653 38.1798 34.678Z" fill="#3CB878"/>
</g>
<defs>
<clipPath id="clip0_29_32">
<rect width="39.4667" height="39.4667" fill="white" transform="scale(1.01351)"/>
</clipPath>
</defs>
</svg>
